# xmcd CD database file
#
# Track frame offsets:
#	150
#	19200
#	38198
#	52501
#	70591
#	89131
#	112216
#	135556
#	155724
#	176259
#
# Disc length: 2504 seconds
#
# Revision: 1
# Processed by: cddbd v1.5.2PL0 Copyright (c) Steve Scherf et al.
# Submitted via: CDex 1.70beta3
#
DISCID=8109c60a
DTITLE=TLi-synth - Meteoric Stream
DYEAR=2009
DGENRE=東方アレンジ
TTITLE0=Collapse Fire
TTITLE1=Waterfly
TTITLE2=プラネタリウム
TTITLE3=Meteoric Stream
TTITLE4=流星ロマンチカ
TTITLE5=スパークエナジー
TTITLE6=夜桜ファンタジア
TTITLE7=UFOria
TTITLE8=Heavenly drive
TTITLE9=薄明
EXTD=YEAR: 2009
EXTT0=
EXTT1=
EXTT2=
EXTT3=
EXTT4=
EXTT5=
EXTT6=
EXTT7=
EXTT8=
EXTT9=
PLAYORDER=
